<svg id="Layer_1" data-name="Layer 1" xmlns="http://www.w3.org/2000/svg" viewBox="0 0 441.4 459.5">
  <defs>
    <style>
      .cls-1 {
        fill: #cb7138;
      }

      .cls-1, .cls-2, .cls-3, .cls-4 {
        fill-rule: evenodd;
      }

      .cls-2 {
        fill: #d17e48;
      }

      .cls-3 {
        fill: #bed0dc;
      }

      .cls-4 {
        fill: #3b88bc;
      }
    </style>
  </defs>
  <title>beanie</title>
  <path class="cls-1" d="M43,331S-17,24,231,16,461,254,444,328c-15,2-397,6-397,6" transform="translate(-22.8 -15.8)"/>
  <path class="cls-2" d="M41,305s184.6.8,216,0,179.1,1.1,190-1c19.6-20.9,25.8,138.7,1,150-51.4,23.4-400.3,38-421-14C16.3,402.4,28.2,286.8,41,305Z" transform="translate(-22.8 -15.8)"/>
  <path class="cls-3" d="M176,365l138-4s4.1.8,4,4,1,82,1,82,1.7,2.7-1,3-142,3-142,3-3.2-1-3-4-3-77-3-77S168.6,365.3,176,365Z" transform="translate(-22.8 -15.8)"/>
  <path class="cls-4" d="M221,381s9.1,20.9-8,34,20.5,37.4,48,23C311.7,411.5,208.2,355.6,221,381Zm12,36c-6.2-3.9-1-16-1-16C238.5,409.7,237,415.2,233,417Zm10.6,11.1c-10.1-7.4,11.3-30,11.3-30C259.6,418.5,253.6,435.5,243.6,428.1Z" transform="translate(-22.8 -15.8)"/>
</svg>
