<svg id="Layer_1" data-name="Layer 1" xmlns="http://www.w3.org/2000/svg" viewBox="0 0 476.4 318.3">
  <defs>
    <style>
      .cls-1 {
        fill: #9e9d78;
      }

      .cls-1, .cls-2 {
        fill-rule: evenodd;
      }

      .cls-2 {
        fill: #a7a88c;
      }
    </style>
  </defs>
  <title>hat</title>
  <g>
    <path class="cls-1" d="M260.1,77.7C116.7,85.8,122.3,277.6,122.3,277.6s56.4-46.3,158.9-17.2c74,20.9,189.1,54.3,205,39.7C480.8,241.8,483.2,65,260.1,77.7Zm4.5,155.5c-6.3.7-32.5,2.4-69.2-4.5s-16.5-69.9-6.3-70.1,15.1,23.5,12.6,20.9c-5.7-5.8-11-14.9-11-14.9-5.2-2.1-14.2,23.7-7.9,26.8,47-32.2,92.9.5,99.1,6-.1-11.1-6.5-27.9-9.5-31.4s-13,8-15.7,15c-5.5-10.3,7.1-21.4,18.9-23.9C302.3,210.2,291.6,230.3,264.6,233.2Z" transform="translate(-9.8 -77)"/>
    <path class="cls-1" d="M9.8,351.7c.8,16.2,37.7,13.2,78.7-11.9,35-26.9,60-56.3,60.5-60.9C149,278.9,33.3,285.7,9.8,351.7Z" transform="translate(-9.8 -77)"/>
    <path class="cls-1" d="M196.9,203.3s11.1-5.3,18.9-1.4C215.4,195.5,195.4,181.1,196.9,203.3Z" transform="translate(-9.8 -77)"/>
    <path class="cls-1" d="M241,201.9s15.6-4.5,22,5.9C265.5,202.3,254.3,182,241,201.9Z" transform="translate(-9.8 -77)"/>
    <path class="cls-1" d="M228.4,215.3c2.7.1,6.9-3.3,7.9-7.5-6.8-4.1-14.2-1.5-14.2-1.5C222.1,208.7,225.7,215.2,228.4,215.3Z" transform="translate(-9.8 -77)"/>
    <path class="cls-1" d="M228.4,218.3s-10,1-14.2-3c-.3,2.9,4.9,14.9,14.2,4.8,10,10.8,14.1-1.7,15.7-4.8C240.2,217,236.7,219.8,228.4,218.3Z" transform="translate(-9.8 -77)"/>
  </g>
  <path class="cls-2" d="M434.4,300.1s-112.2,99.7-147.3,95.1c-37.6-5-134.8-86-201.4-91.1C33,310.6,12.4,339.3,11.2,357c-4-12,13.2-70.5,113.9-90C167.3,256.5,206.1,218.8,434.4,300.1Z" transform="translate(-9.8 -77)"/>
</svg>
