<svg id="Layer_1" data-name="Layer 1" xmlns="http://www.w3.org/2000/svg" viewBox="0 0 316.4 550.3">
  <defs>
    <style>
      .cls-1 {
        fill: #cea598;
      }

      .cls-1, .cls-10, .cls-11, .cls-2, .cls-3, .cls-4, .cls-5, .cls-6, .cls-7, .cls-8, .cls-9 {
        fill-rule: evenodd;
      }

      .cls-2 {
        fill: #bb8c7f;
      }

      .cls-3 {
        fill: #cbc1b7;
      }

      .cls-4 {
        fill: #deddd8;
      }

      .cls-5 {
        fill: #c99385;
      }

      .cls-6 {
        fill: #bd7480;
      }

      .cls-7 {
        fill: #f8e0d9;
      }

      .cls-8 {
        fill: #ef8080;
      }

      .cls-9 {
        fill: #9f7b64;
      }

      .cls-10 {
        fill: #a8845a;
      }

      .cls-11 {
        fill: #543f38;
      }
    </style>
  </defs>
  <title>Me Smiling</title>
  <path class="cls-1" d="M112,407s146.7-74,157-119c.8,23.6-7.2,88.5,2,125,20,35.3-77.3,122.4-70.8,115C212.7,513.5,76.3,496.6,112,407Z" transform="translate(-6 -8)"/>
  <path class="cls-2" d="M176,481c38.9,11.2,78.1-69.4,93-98,34.1,27.6-32.9,122.2-60,149C198.4,542.5,59.8,409.3,103,424,160.3,507.8,157.1,468.8,176,481Z" transform="translate(-6 -8)"/>
  <path class="cls-3" d="M177,484c3.6,1.5,26,36,26,40,0-4.5,24.1-43.5,22-41,2.6-.7,46.6,10.4,46,31s20.5,41-3,33c-35.6-14-94.3-14.5-132-4-7.3-9.9-3.2-40-3.2-40C107.5,485.8,156.1,475.4,177,484Z" transform="translate(-6 -8)"/>
  <g>
    <path class="cls-4" d="M282,522c4.9-7.1,11.8-92.2,11-105s-27-59-27-59c.3,9.1.3,27.3,1,37-5.8,11.7,6.2,21.1,6,29-.6,11.2-16.8,27-16.8,27-5,7-35.1,31.6-32.2,34,5.8,2.4,28.1,43.8,30,52s21.5,16.9,27,20,4,.2,6-2C282.2,552.8,280.4,530.8,282,522Z" transform="translate(-6 -8)"/>
    <path class="cls-4" d="M144,444c-6-5.8-47.6-47.6-45-62-7.6,2.3-14,5-14,5s-8.2,27-12,32a37.1,37.1,0,0,0,7,31c7.9,10.1,41.5,67.3,41,105,3.4,3.6,8.1-1.3,11-4s18.9-11.6,19-20,9.9-44.9,27-45c1.9-1.8,0-7,0-7S148.9,447.6,144,444Z" transform="translate(-6 -8)"/>
  </g>
  <path class="cls-5" d="M69,73s-30.7,30-29,82c-2.7,6.6,6.2,61.7-1,73-2.3,14.9-9.4,45.9,14,82,14.2,33.4,30.8,76.9,39,84s14.1,19.5,57,14,56.6-20.4,61-24,59.6-39.6,58-95c11.2,11.2,32.7,15.5,42-14,9.3-18.9,22.5-62.9,0-70C299,205.4,312.4-38.1,69,73Z" transform="translate(-6 -8)"/>
  <path class="cls-2" d="M98,183s-18,78.5-7,86c9.3,6.4,39-1,39-1-7.6-3.1-28.8-4.7-31.5-13.9C97.1,249.4,99.4,185,98,183Z" transform="translate(-6 -8)"/>
  <g>
    <path class="cls-6" d="M245,247c-5-26.2-56.7-18.8-56,10C190,299.4,256.8,286,245,247Z" transform="translate(-6 -8)"/>
    <path class="cls-6" d="M40.1,246.5C38.5,273.9,76,279.9,76,259,75.9,232.8,41.2,229.4,40.1,246.5Z" transform="translate(-6 -8)"/>
  </g>
  <g>
    <path class="cls-7" d="M262,257l35.4-34.5c2-8.1,3.1-13.6,2.6-14.5-2.5-4.2-39.4,28.8-51,33-45.1,25.9-214,10-214,10-9.4,15.1,29.4,115.1,46.8,141.1,112.7,75.4,182-66.8,186.2-71.1s.4-3.3,3-11c3.4-10,8.1-24.8,12.7-39.9L271,292Z" transform="translate(-6 -8)"/>
    <path class="cls-7" d="M301,219l-3.6,3.5c-3.1,12.2-8.4,30.2-13.7,47.6L300,242Z" transform="translate(-6 -8)"/>
  </g>
  <g>
    <path class="cls-8" d="M168.2,313.4c0-4.5-10.7-45.7-58.8-35.6-41.5,10.3-34.8,54.8-31.2,60.3,6.1,7.4,17.3,7.3,28,4.4,2.4,10.4,1.4,19.1,4.3,27.8,8.4,9.9,39,2.6,42.6-10-1.4-9.5-6.5-17.6-9.6-27.2C155.6,330.2,168.1,323.1,168.2,313.4Zm-22.3,45.3c-3,5.7-23.1,10.9-29.1,7.4-.3-3.3.5-7.9-3-25.5l22.8-5.7C141.5,352.3,145.5,356.6,145.9,358.7Zm13.3-41c-5,7.3-64.5,21.7-72.6,19-14.4-9-1.6-45,24.1-51.2C137.4,277.3,165.6,304.8,159.2,317.7Z" transform="translate(-6 -8)"/>
    <path class="cls-8" d="M124.9,294c-1.5,1-.5,5.6,2.1,5.6C129.7,297.9,127.1,293.9,124.9,294Z" transform="translate(-6 -8)"/>
    <path class="cls-8" d="M139.4,300.5c-5.9,2.9-1,12.2,2.2,11.6S143.7,300.3,139.4,300.5Z" transform="translate(-6 -8)"/>
    <path class="cls-8" d="M128.1,314.8c-3.4,1.8-1.6,9.6,2.3,8.8S131.3,314.4,128.1,314.8Z" transform="translate(-6 -8)"/>
  </g>
  <path class="cls-9" d="M246,70c0-17.5-69.8-20.1-82.4-16.6L105.3,63C62.8,75.2,50.1,90.9,44,133c-.8,5.6-4,23.1-7,26-4.7,4.6-15.8,9-18,13-2.1-23.6,5.9-44.1,2.2-55.2C12.3,82.1,30.5,62.6,32,58c9.6-17.3,56.9-41,70-46,20.6-7.9,46-2.1,82.6.3,18.9,1.2,34.6,5.9,46.4,13.7s24.5,6,31.6,13.1C281.9,58.4,297,90.9,316,119c10.5,15.4,4.2,35.6,6,51-4.7,12.7-8.3,21.3-13,34-16,.5-21.5,14.6-30.2,23.3-4.6-2.6-6.6-4.9-8.8-10.3-7.8-20.6-.7-42.2-6-61-5.6-8.2-10-14-15-21V75C246.3,68.3,247.3,70,246,70Z" transform="translate(-6 -8)"/>
  <path class="cls-10" d="M257,65c-12.8-12.9-57.3-38.5-70-35-19.4,3.2-63.6-1.2-83,2C61.5,44.1,35.4,45.3,27,87c-1.1,5.5-1.4,13.7-5,28-8.9-34.7,8.5-52.4,10-57,9.6-17.3,56.9-41,70-46,20.6-7.9,46-2.1,82.6.3,18.9,1.2,34.6,5.9,46.4,13.7s24.5,6,31.6,13.1C281.9,58.4,297,90.9,316,119c10.5,15.4,4.2,35.6,6,51-4.7,12.7-9.3,21.3-14,34-16,.5-20.5,14.6-29.2,23.3,11.6-39.8,5.1-30.2,1.2-66.3-.8,0-5-29.1-6-50C274.1,102.3,285.7,99.8,257,65Z" transform="translate(-6 -8)"/>
  <path class="cls-11" d="M227,153c-62.5-10.6-108.5,13-109,13s-19.4,2.7-25,1c-57.2-14-87,9-87,9l1,17s3,.6,3.8,3.2S9.5,225.6,32,226c32.3.5,54.1-4,59-12,5.1-27,10.5-35.6,17-36s7,4.9,10,9c5.4,12.7,8.3,25.5,17,27,33.7,9.1,73-.5,77-2s7.6-4.6,11-11c2.6-28.7,6-22.4,9-26,6.9-.9,65.4,29.9,69,31C299.9,192.1,248.9,165,227,153ZM92,182c-.2,5.4-3.4,34.4-17,37s-51,5.7-57-1c-2.3-5.5-3.1-16-4.6-25.6-.6-4.1,24.3,7.9,28.6,10.6.5-3.9-1.1-13.6-1-14s-28.3-11.2-27.4-12.9c8.8-4.3,23.3-11.2,70.4-6.1C92.6,174.7,92.2,176.6,92,182Zm103,30c-18.5,1.1-49,3.3-58-2s-19.5-35.4-9-43c0,0,31.2-16.3,84-9,5.2,4.2,7.9,2.9,8,15S223.3,210.5,195,212Z" transform="translate(-6 -8)"/>
  <path class="cls-2" d="M272,290c11.2,11.2,28.7,14.5,38-15,9.3-18.9,22.5-62.9,0-70C283.8,202.3,279.7,234.9,272,290Z" transform="translate(-6 -8)"/>
</svg>
