<svg id="Layer_1" data-name="Layer 1" xmlns="http://www.w3.org/2000/svg" viewBox="0 0 72 79.6">
  <defs>
    <style>
      .cls-1 {
        fill: #1e407c;
      }

      .cls-2 {
        fill: #96bee6;
      }
    </style>
  </defs>
  <title>psu_shield</title>
  <g>
    <path class="cls-1" d="M83.9,83.6c0-.6.4-1.5.4-2.3s-1.1-1.3-2.1-1.4-2.6-.2-2.6-.6.3-.6.6-1.2A4.3,4.3,0,0,1,82.7,77l3-.2a15,15,0,0,1,2.9.3c1.2.2,1.4.7,1.4,1.2v.6c0,.6-.5.8-1.3,1l-.7.2c-.6.1-1.3.2-1.6,1s-1.5,2.9-2.3,2.8S83.9,83.8,83.9,83.6Zm1.7-26.4c-.1,0-.3-.1-.3-.4s.2-.5.6-1.1,2.3-2.9,2.8-2.9.4.1.7.7a2.9,2.9,0,0,1,.3,1.4,7.5,7.5,0,0,1-1.5,4.4A13.4,13.4,0,0,0,85.6,57.2ZM57,60.5c.4,0,.7-.3,1.4-1.1s2.9-1.8,2.9-2.5a2.6,2.6,0,0,0-.4-1,52.7,52.7,0,0,1-3.2-5.5c-.3-.7-.8-1.1-1.1-1.1s-1.1.6-1.5,1.1a5.1,5.1,0,0,0-.9,2.5,16.5,16.5,0,0,0,.8,4.7C55.5,59.1,56.3,60.5,57,60.5Zm17.7,5.7a2.9,2.9,0,0,0-3.1-2.5A3.9,3.9,0,0,0,68.1,66a3.6,3.6,0,0,0,2.5,2.3c.3,0,.5,0,.5.2s-.3.4-.9.4a4.7,4.7,0,0,1-3.6-1.4l-1.8.3c-.6,0-.8-.4-.8-.9a2.7,2.7,0,0,1,.3-1.2l.3-.6a5.4,5.4,0,0,1,2.5-2.9l1-.6a5,5,0,0,1,2.9-.7h.9a4,4,0,0,1,2.8.9c1.3,1.1,2,1.7,2,2.5a3.5,3.5,0,0,1-.8,2.4,3.3,3.3,0,0,1-2.1,1.4l-.2-.2c0-.1.2-.2.3-.3A2.9,2.9,0,0,0,74.7,66.2Zm8.6,27.3a16.5,16.5,0,0,1-3.9.2c-4.4,0-5.2-1.1-5.2-1.9s6.4-2.5,8.9-2.5,3.4.8,3.4,1.4S85.4,93,83.3,93.5ZM57.8,106.4a144,144,0,0,0,14.3,9.7h0c.1-4.4-.1-6.9,2.9-10l3.5-3.6c.8-.9,1.5-1.5,1.9-1.5s.4.1.4.5a8.8,8.8,0,0,0,1.1,3.5,4.2,4.2,0,0,0,3.2,2.5c12.5-9.5,23-21.8,23-39.4V42.4c-3.1-1-15.8-5.9-36-5.9s-32.9,4.9-36,5.9V68.1a40.9,40.9,0,0,0,5.4,20.3c.3-3.5,2.7-5.2,2.7-8.7s-.6-4-.6-6c0-3.7,4.9-11.4,7.5-14.5.1,0,.3-.3.5-.3s.3.2.4.3.4.7.7.7a.4.4,0,0,0,.4-.4,21.7,21.7,0,0,1-.8-6c0-2.9.7-3.5,2.5-5.3s1.4-1.3,2.4-1.3,1.6.6,2.3,1.3a36.3,36.3,0,0,1,2.9,3.5l.3.2a27.3,27.3,0,0,1,3.2-.2,56.2,56.2,0,0,1,13.6,1.7c1.6.5,2,.9,2.4.9s.2-.1.2-.2-.4-.6-.4-.9.1-.3.3-.4c2.4-1.2,4.4-2.2,6.3-2.2s1.6.9,2,1.8a6.1,6.1,0,0,1,.8,2.7,8.1,8.1,0,0,1-1.8,5.2l1.2,1.3a4.4,4.4,0,0,1,1.3,2.5,9.9,9.9,0,0,1-.3,1.5c-.1.2-.3.6-.6.6s-.5-.3-.5-.7v-.2a3.3,3.3,0,0,0-.9-2.4,3.2,3.2,0,0,0-2.3-1.4h-.4a3.3,3.3,0,0,0-2.5,1,2.7,2.7,0,0,0-.8,1.8,4.6,4.6,0,0,0,.7,1.8l1.2,2.2a1.3,1.3,0,0,0,1.1.7c1,0,1.9-.2,1.9-.5h-.5c-1.3,0-2.1-1.7-2.7-3.3a2.8,2.8,0,0,1,2.1-1,2.1,2.1,0,0,1,2.2,2.1,3.1,3.1,0,0,1-.3,1.3v.2c0,.2.2.2.5.3h.6a1.9,1.9,0,0,1,1,1c.1.3.3,1,.4,1.2a8.4,8.4,0,0,1,.6,2.8,8.8,8.8,0,0,1-.4,2.7,22.5,22.5,0,0,0-.7,2.9c.2.3.2.3.2.5a4.8,4.8,0,0,1,.6,2.3v.8a5.8,5.8,0,0,1-1.3,3.6A21.1,21.1,0,0,1,89,88.1a1.1,1.1,0,0,1-1,.6h-.7l-1-.3c-.9-.2-1.2-.8-1.5-1.6l-.3-.6c-.2-.5-.3-.9-.6-.9s-.5.2-.8.6A4.3,4.3,0,0,1,80.2,88l-2.3.5a25.3,25.3,0,0,1-3.6.7h-.7c-1.3-.1-2.2-.2-3.8-2.2s-2-3-2.1-6.5c0-.4-.2-.9-.6-.9s-.5.7-.6,1.8-.5,2.6-1.1,2.6L64,83.6l-3.9-1.3c-1.4-.5-2.8-.9-3.3-2.1l-1-2.3c-.2-.4-.3-.7-.6-.7s-.5.5-.5.9a10.1,10.1,0,0,0-.2,1.9,7.6,7.6,0,0,1-1.8,4.9l-1.5,2a8.7,8.7,0,0,0-1.7,5.8v1.7C49.6,98.7,50.7,100.7,57.8,106.4Z" transform="translate(-36.1 -36.5)"/>
    <path class="cls-2" d="M91.3,69.1h0c.1.3.3,1,.4,1.2a8.4,8.4,0,0,1,.6,2.8,8.8,8.8,0,0,1-.4,2.7,22.5,22.5,0,0,0-.7,2.9c-.1-.2-2.3-4-2.4-4.3a1.6,1.6,0,0,1-.3-.9c0-.4.1-.6.6-.9l.9-.5A2.2,2.2,0,0,0,91.4,70C91.4,69.7,91.3,69.4,91.3,69.1ZM81.8,75a3.7,3.7,0,0,1,.2.9,1.2,1.2,0,0,1-.4,1.1l-.6.5-.8.6c-.3.6-.6.9-.6,1.2s.1.1.1.2a1.6,1.6,0,0,1-.6-1.3c0-.4.2-.6.2-.9a1.3,1.3,0,0,0-.2-.8c-.6-2-1.6-4.4-2.2-6.1s-1.2-2.5-1.9-2.5l-1.2.2a3.3,3.3,0,0,0,2.1-1.4,3.5,3.5,0,0,0,.8-2.4,1.6,1.6,0,0,0-.5-1.1,11.5,11.5,0,0,1,2.1,3.4C79.7,69.5,80.8,72.6,81.8,75ZM49.5,94.4V92.7a8.7,8.7,0,0,1,1.7-5.8l1.5-2A7.6,7.6,0,0,0,54.5,80a10.1,10.1,0,0,1,.2-1.9c0-.4.1-.9.5-.9s.4.3.6.7l1,2.3c.5,1.2,1.9,1.6,3.3,2.1L64,83.6l1.4.3c.6,0,.9-1.4,1.1-2.6s.3-1.8.6-1.8.6.5.6.9c.1,3.5-.1,3.9,2.1,6.5s2.5,2.1,3.8,2.2a1.8,1.8,0,0,1-1.1-1.8V86a5.6,5.6,0,0,1,.4-2.1,5,5,0,0,0,.5-1.3,2.2,2.2,0,0,0,.2-1.3,6.9,6.9,0,0,0-.6-2.1c-.2-.6-.4-1.5-.7-2.2-.8-2.3-1.1-2.8-3.8-3.2l-5.4-.7c-3-.4-5.4-.6-6.6-2.6s-1.3-5.4-2.7-5.4-1.1.8-1.1,1.9.5,3,.5,6.2-.3,3.6-1.9,5.6a14.1,14.1,0,0,1-1.4,1.8c-1.2,1.5-1.7,2.4-1.6,4.2A54.7,54.7,0,0,0,49.5,94.4Zm30.7,10.8c.1-1.1.6-3,.6-3.7h0c0-.4-.1-.5-.4-.5s-1.1.6-1.9,1.5L75,106.1c-3,3.1-2.8,5.6-2.9,10h0c3.3-2,6.3-3.9,8.5-5.4A18.7,18.7,0,0,1,80.2,105.2Z" transform="translate(-36.1 -36.5)"/>
  </g>
</svg>
