<svg id="Layer_1" data-name="Layer 1" xmlns="http://www.w3.org/2000/svg" viewBox="0 0 357.6 494">
  <defs>
    <style>
      .cls-1 {
        fill: #110f23;
      }

      .cls-2 {
        fill: #9f1d20;
        fill-rule: evenodd;
      }
    </style>
  </defs>
  <title>top_hat</title>
  <g>
    <path class="cls-1" d="M250,388c170.5-9.7,181.3-137.4,159-144s-46.6-.5-58,6c.9-108.9,32.3-182.4,37-205S310.6,3.5,234,4C163.5,4.5,77.1,31.4,88,45c16.9,21,42.3,204.5,35,203s-47.6-13.5-59,0C38.3,331.7,140,391.5,250,388Z" transform="translate(-60 -4)"/>
    <path class="cls-1" d="M410,420.9s-25.5,14.5-60,7.9c-32.4-5.4-49.1-60.4-107-8.9-45.2-50.4-71.2,2.1-108,8.9-16.6,3.1-35-.4-56-8.9-6.4-1.8-8.4-3.7-6,3,5,13.6,20,40.1,43,52.9,36.2,20.2,100.8,38.2,129-1,36,45.3,119.1,7.2,121.3,6.7,4.3-3.3,48.7-38.8,48.7-59.6C412.5,416.7,410,420.9,410,420.9Z" transform="translate(-60 -4)"/>
    <path class="cls-1" d="M366.3,481.5l-.3.3C366.4,481.6,366.4,481.5,366.3,481.5Z" transform="translate(-60 -4)"/>
  </g>
  <path class="cls-2" d="M124.3,241.4c-3.2,3.4,111.6,64.9,226.7-.4,1.8,13.4,2.8,47,5,48-1.8,2.6-59.9,31.2-121.9,30.4-54.9-.6-106.1-25.1-115.4-30.2Z" transform="translate(-60 -4)"/>
</svg>
