<svg id="Layer_1" data-name="Layer 1" xmlns="http://www.w3.org/2000/svg" viewBox="0 0 381.7 482.1">
  <defs>
    <style>
      .cls-1 {
        fill: #766155;
      }

      .cls-1, .cls-2, .cls-3, .cls-4, .cls-5 {
        fill-rule: evenodd;
      }

      .cls-2 {
        fill: #a28c7e;
      }

      .cls-3 {
        fill: #d51771;
      }

      .cls-4 {
        fill: #9c4f96;
      }

      .cls-5 {
        fill: #1e429b;
      }
    </style>
  </defs>
  <title>ushanka</title>
  <path class="cls-1" d="M182,34s109.5-47.8,189-1c63.7,49.5,63.5,163.3,64,169,1,11.2,2.8,267.5-87,273-31.4-29-49.8-128.4-72-127s-38,16.5-48,65C151.2,403.4,32,113.5,182,34Z" transform="translate(-76.3 -12.5)"/>
  <g>
    <path class="cls-2" d="M323,194c-.4-24.8,18-158.9-130-163,0,0-70.5-5.2-98,45-24.7,50.2-29,132.2,12.7,144.6-2.7,34-18,239.1,39.3,253.4,128.2-7.7,97.7-196.7,74-233-21.5-24.5-98.6-31.9-97-32,79.1-6.7,127.2,28.4,154,17,3,8,7.2,99.8-1,118-.1,18.9,12.3,144.7,45,150s39.6-31,30-52C344.5,412.7,332.9,213.4,323,194Z" transform="translate(-76.3 -12.5)"/>
    <path class="cls-2" d="M433,210c-4.5-7.1-9.5-21.9-18-19s19.4,39.2,13,40-37-.8-53-22-17.1-33.9-24-36c0,0-24,15.3-4,56,18.9,38.5,16,58.7,86,60C486.9,290.9,437.7,217.4,433,210Z" transform="translate(-76.3 -12.5)"/>
  </g>
  <path class="cls-3" d="M129.3,86.9S242,115.8,253.7,112.1c-.3,10.4-1.9,25.9-1.9,25.9s-80.6-11.8-124.2-28.3C126.8,105.4,129.3,86.9,129.3,86.9Z" transform="translate(-76.3 -12.5)"/>
  <path class="cls-4" d="M127.1,109.7s113,29,124.7,25.3c-.3,10.4-1.9,25.9-1.9,25.9S169.1,149,125.4,132.6C124.6,128.2,127.1,109.7,127.1,109.7Z" transform="translate(-76.3 -12.5)"/>
  <path class="cls-5" d="M125.4,131.6s113.1,29,124.8,25.3c-.3,10.4-1.9,25.9-1.9,25.9s-80.8-11.9-124.6-28.3C123,150.1,125.4,131.6,125.4,131.6Z" transform="translate(-76.3 -12.5)"/>
</svg>
